<?xml version="1.0" encoding="iso-8859-1"?>
<!-- Generator: Adobe Illustrator 17.1.0, SVG Export Plug-In . SVG Version: 6.00 Build 0)  -->
<!DOCTYPE svg PUBLIC "-//W3C//DTD SVG 1.1//EN" "http://www.w3.org/Graphics/SVG/1.1/DTD/svg11.dtd">
<svg version="1.1" id="Capa_1" xmlns="http://www.w3.org/2000/svg" xmlns:xlink="http://www.w3.org/1999/xlink" x="0px" y="0px"
	 viewBox="0 0 215.762 215.762" style="enable-background:new 0 0 215.762 215.762;" xml:space="preserve">
<path d="M210.762,175.475h-19.759V79.097v-24.17c0-2.762-2.238-5-5-5h-36.776c-2.762,0-5,2.238-5,5v24.17v96.378H131.27V59.457
	V58.74V35.287c0-2.762-2.238-5-5-5H89.492c-2.762,0-5,2.238-5,5V58.74v0.717v116.019H73.13v-54.612v-2.526V96.693
	c0-2.762-2.238-5-5-5H31.353c-2.762,0-5,2.238-5,5v21.644v2.526v54.612H5c-2.762,0-5,2.238-5,5s2.238,5,5,5h26.353H68.13h21.362
	h36.777h22.957h36.776h24.759c2.762,0,5-2.238,5-5S213.523,175.475,210.762,175.475z M154.227,59.927h26.776v14.17h-26.776V59.927z
	 M121.27,40.287V53.74H94.492V40.287H121.27z M63.13,101.693v11.644H36.353v-11.644H63.13z"/>
<g>
</g>
<g>
</g>
<g>
</g>
<g>
</g>
<g>
</g>
<g>
</g>
<g>
</g>
<g>
</g>
<g>
</g>
<g>
</g>
<g>
</g>
<g>
</g>
<g>
</g>
<g>
</g>
<g>
</g>
</svg>
